<svg xmlns="http://www.w3.org/2000/svg" viewBox="0 0 256 256" role="img" aria-label="Afri-cart">
  <defs>
    <linearGradient id="g" x1="0" y1="0" x2="1" y2="1">
      <stop offset="0" stop-color="#003B7A"/>
      <stop offset="1" stop-color="#E07B00"/>
    </linearGradient>
  </defs>
  <rect width="256" height="256" rx="56" fill="#ffffff"/>
  <rect x="16" y="16" width="224" height="224" rx="48" fill="url(#g)" opacity="0.12"/>
  <path fill="#003B7A" d="M60 72a12 12 0 0 1 12-12h18a12 12 0 0 1 11.6 9l6.5 25.9H200a12 12 0 0 1 11.5 15l-15.8 55.3A20 20 0 0 1 176.5 180H104.8a20 20 0 0 1-19.3-15.3L68.7 98.9H72a12 12 0 0 1-12-12Zm56 136a16 16 0 1 0 0-32 16 16 0 0 0 0 32Zm68 0a16 16 0 1 0 0-32 16 16 0 0 0 0 32Z"/>
  <path fill="#E07B00" d="M92 72h84a10 10 0 0 1 0 20H97.3z"/>
  <text x="128" y="150" text-anchor="middle" font-family="system-ui, Segoe UI, Arial" font-size="26" font-weight="800" fill="#003B7A">Afri-cart</text>
</svg>
